<svg xmlns="http://www.w3.org/2000/svg" version="1.1" viewBox="81.69 68.56 639.62 504.65">
<path d="M0 0 C7.1802162 0.0179827 14.36041089 0.01899091 21.54064601 0.01963936 C34.4401211 0.02131851 47.33953955 0.03699603 60.2389906 0.06112619 C72.55475068 0.08414574 84.87047485 0.0984649 97.18625623 0.10214181 C98.31534927 0.10249495 98.31534927 0.10249495 99.46725227 0.10285522 C102.49944257 0.10379996 105.53163288 0.10472905 108.5638232 0.10563539 C210.63642971 0.13766842 210.63642971 0.13766842 259.84342819 0.70619245 C262.19131015 0.73244352 264.53920397 0.75571818 266.88712483 0.77819009 C313.06219807 1.23530317 313.06219807 1.23530317 326.52634412 7.96737619 C328.80113754 11.05459583 329.05291924 13.13208195 328.81150037 16.92050119 C325.99599498 29.66220438 311.64662184 39.00595197 301.81394177 46.37557931 C291.9578967 53.77685384 282.80219527 61.92782205 273.68650037 70.21346994 C271.18993808 72.41869919 268.62472537 74.50837609 266.02634412 76.59237619 C260.95291489 80.69124838 256.2156523 85.07477607 251.47092419 89.54232736 C247.15806716 93.58138967 242.67823031 97.33162884 238.06540662 101.02596994 C233.63900249 104.70224115 229.46833299 108.64663991 225.26071912 112.56893869 C220.64280651 116.87343133 215.86872805 120.98550024 211.06540662 125.08065744 C204.5197898 130.66556552 198.05594905 136.30791579 191.70993787 142.11971994 C187.23927911 146.20287376 182.66492522 150.16079997 178.05759412 154.08846994 C176.85953637 155.11043998 175.66162401 156.1325805 174.46384412 157.15487619 C173.85782361 157.67203195 173.2518031 158.18918771 172.62741834 158.72201486 C168.8860215 161.92714148 165.21535934 165.19431347 161.58884412 168.52987619 C156.31975064 173.35477283 150.84281372 177.86653803 145.27634412 182.34237619 C120.19754055 200.94126991 120.19754055 200.94126991 100.27634412 224.34237619 C99.85330906 227.13880863 99.85330906 227.13880863 100.27634412 229.34237619 C101.43134412 229.81675119 102.58634412 230.29112619 103.77634412 230.77987619 C104.42603162 231.04671212 105.07571912 231.31354806 105.74509412 231.58846994 C111.89318564 233.41961448 118.26006196 233.48626711 124.62305432 233.44917245 C125.82518026 233.44833739 125.82518026 233.44833739 127.05159157 233.44748546 C129.71654728 233.44446805 132.38142625 233.43429671 135.04636365 233.4241633 C136.96568963 233.42060408 138.88501654 233.41751894 140.80434399 233.41487069 C144.92886312 233.40833414 149.05336035 233.39878372 153.17786771 233.38697572 C159.71010848 233.36862758 166.24234405 233.35906864 172.77460461 233.35105844 C191.34714812 233.3269508 209.91965943 233.291119 228.49216443 233.24642892 C238.75643066 233.22180819 249.02068422 233.20448966 259.2849757 233.19486953 C265.76739138 233.18835845 272.24970191 233.17286602 278.73208147 233.15055211 C282.78075712 233.13874747 286.82940789 233.13545038 290.87809926 233.13445421 C292.74279937 233.13232286 294.60749951 233.12678765 296.47217732 233.11742349 C325.2485999 232.97861543 325.2485999 232.97861543 335.27634412 239.34237619 C337.69328741 242.96779112 337.91117983 244.05723512 337.27634412 248.34237619 C333.63479778 255.83355722 327.40652154 261.77938254 321.74509412 267.77206369 C320.27745624 269.34118716 318.8360031 270.93058421 317.40134412 272.52987619 C312.9311688 277.50574491 308.43927395 282.26302807 303.30368787 286.56893869 C300.84444936 288.72018007 298.57081404 291.01647517 296.27634412 293.34237619 C292.78931512 296.86650124 289.23578113 300.20909308 285.47165662 303.43221994 C282.69211829 305.85071503 279.9850725 308.34537223 277.27634412 310.84237619 C267.53892101 319.79840114 257.45446924 328.3453463 247.40329724 336.94491525 C234.01810478 348.39887585 220.81460083 360.00335454 207.95041638 372.04330392 C203.07478667 376.60473321 198.16503111 381.12644518 193.23728162 385.63143869 C190.07378683 388.52444093 186.92458486 391.43279391 183.77634412 394.34237619 C179.61794201 398.18479404 175.45225338 402.01899216 171.27634412 405.84237619 C165.4752715 411.15437435 159.69465271 416.48831975 153.9174574 421.82626291 C150.66395023 424.83195756 147.40870536 427.83577013 144.15378552 430.83993478 C141.43234439 433.35184541 138.71132663 435.86421148 135.99118787 438.37753244 C132.7546272 441.36768135 129.51614902 444.35574285 126.27634412 447.34237619 C125.7458949 447.83157541 125.21544568 448.32077462 124.66892224 448.82479806 C123.10162679 450.26931884 121.53305424 451.71243577 119.96384412 453.15487619 C119.2115553 453.8474653 119.2115553 453.8474653 118.44406873 454.55404611 C115.77087016 457.0059225 113.05457137 459.38595662 110.27634412 461.71737619 C106.69497146 464.81477956 103.52930802 468.2281015 100.33884412 471.71737619 C99.56045178 472.56743234 99.56045178 472.56743234 98.76633435 473.43466134 C97.7422645 474.55390737 96.71825598 475.67320952 95.69431287 476.7925715 C79.76370578 494.20433007 62.95322723 502.72182135 39.27634412 504.34237619 C33.84535405 504.4952695 28.4160152 504.50772 22.98337537 504.51034494 C21.39041346 504.51357187 19.79745182 504.51693692 18.20449048 504.520431 C14.86344453 504.52639893 11.52242431 504.52827397 8.18137341 504.52767892 C4.82389558 504.52759862 1.46655698 504.53438809 -1.89089221 504.54818673 C-61.53143324 504.78935362 -121.23246997 500.01762466 -174.72365588 471.34237619 C-175.31307971 471.02832834 -175.90250354 470.71428048 -176.5097887 470.39071603 C-204.92322107 455.10761355 -230.86993029 433.60630882 -249.72365588 407.34237619 C-250.16725452 406.73248849 -250.61085315 406.1226008 -251.06789416 405.49423166 C-291.16947808 350.05091532 -309.52207783 280.28455311 -299.2153551 212.38143869 C-289.28268027 150.99020914 -255.16793122 90.09194242 -204.41115588 52.93612619 C-203.18479495 52.06756767 -201.95536744 51.20333012 -200.72365588 50.34237619 C-199.97213245 49.81128244 -199.22060901 49.28018869 -198.44631213 48.73300119 C-166.27835308 26.16969341 -129.14773473 7.62763588 -89.5666582 4.0168757 C-85.35376905 3.61885036 -81.16638217 3.15123827 -76.97428149 2.57559152 C-51.44001769 -0.7281036 -25.69491978 -0.06621041 0 0 Z " fill="#01BABC" transform="translate(383.7236558832228,68.65762381255627)"/>
</svg>